<?xml version="1.0" encoding="UTF-8" standalone="no"?>
<svg
   xmlns:dc="http://purl.org/dc/elements/1.1/"
   xmlns:cc="http://creativecommons.org/ns#"
   xmlns:rdf="http://www.w3.org/1999/02/22-rdf-syntax-ns#"
   xmlns:svg="http://www.w3.org/2000/svg"
   xmlns="http://www.w3.org/2000/svg"
   xmlns:sodipodi="http://sodipodi.sourceforge.net/DTD/sodipodi-0.dtd"
   xmlns:inkscape="http://www.inkscape.org/namespaces/inkscape"
   version="1.1"
   id="svg867"
   xml:space="preserve"
   width="304"
   height="125.33333"
   viewBox="0 0 304 125.33333"
   sodipodi:docname="donnegan.svg"
   inkscape:version="1.0.2 (e86c870879, 2021-01-15, custom)"><metadata
     id="metadata873"><rdf:RDF><cc:Work
         rdf:about=""><dc:format>image/svg+xml</dc:format><dc:type
           rdf:resource="http://purl.org/dc/dcmitype/StillImage" /><dc:title /></cc:Work></rdf:RDF></metadata><defs
     id="defs871"><clipPath
       clipPathUnits="userSpaceOnUse"
       id="clipPath885"><path
         d="m 0,6.25 h 2280 v 930 H 0 Z"
         id="path883" /></clipPath></defs><sodipodi:namedview
     pagecolor="#ffffff"
     bordercolor="#666666"
     borderopacity="1"
     objecttolerance="10"
     gridtolerance="10"
     guidetolerance="10"
     inkscape:pageopacity="0"
     inkscape:pageshadow="2"
     inkscape:window-width="1920"
     inkscape:window-height="1136"
     id="namedview869"
     showgrid="false"
     inkscape:showpageshadow="false"
     showborder="false"
     inkscape:zoom="2.7368421"
     inkscape:cx="91.586878"
     inkscape:cy="78.767798"
     inkscape:window-x="0"
     inkscape:window-y="27"
     inkscape:window-maximized="1"
     inkscape:current-layer="g881"
     inkscape:document-rotation="0" /><g
     id="g875"
     inkscape:groupmode="layer"
     inkscape:label="ink_ext_XXXXXX"
     transform="matrix(1.3333333,0,0,-1.3333333,0,125.33333)"><g
       id="g877"
       transform="scale(0.1)"
       style="fill:#ff0000"><g
         id="g881"
         clip-path="url(#clipPath885)"
         style="fill:#ff0000"><path
           d="M 982.191,375.629 C 937.809,170.309 755.738,16.25 537.461,15.0781 H 5 V 375.629 Z m -444.73,554.57 C 755.43,929.059 937.34,775.469 981.988,570.629 H 5 v 360.543 h 532.461 v -0.973"
           style="fill:#ff0000;fill-opacity:1;fill-rule:nonzero;stroke:none"
           id="path887"
           inkscape:export-xdpi="600"
           inkscape:export-ydpi="600" /><path
           d="M 982.191,375.629 C 937.809,170.309 755.738,16.25 537.461,15.0781 H 5 V 375.629 Z"
           style="fill:#24509f;stroke:none;stroke-width:10;stroke-linecap:butt;stroke-linejoin:miter;stroke-miterlimit:3.86371;stroke-dasharray:none;stroke-opacity:1;fill-opacity:1"
           id="path889"
           inkscape:export-xdpi="600"
           inkscape:export-ydpi="600" /><path
           d="M 537.461,930.199 C 755.43,929.059 937.34,775.469 981.988,570.629 H 5 v 360.543 h 532.461 z"
           style="fill:#24509f;stroke:none;stroke-width:10;stroke-linecap:butt;stroke-linejoin:miter;stroke-miterlimit:3.86371;stroke-dasharray:none;stroke-opacity:1;fill-opacity:1"
           id="path891"
           inkscape:export-xdpi="600"
           inkscape:export-ydpi="600" /><path
           d="M 9.05859,409.99544 H 62.6211 c 40.7769,0 51.2889,38.239 51.2889,64.731 0,23.398 -8.601,58.859 -50.2811,58.859 H 9.05859 Z m 25.32031,102.27 h 24.8008 c 11.0195,0 28.3984,-2.93 28.3984,-39.418 0,-20.313 -7.0664,-41.481 -28.0898,-41.481 H 34.3789 v 80.899"
           style="fill:#000000;fill-opacity:1;fill-rule:evenodd;stroke:none"
           id="path893"
           inkscape:export-xdpi="600"
           inkscape:export-ydpi="600" /><path
           d="m 127.07,471.79644 c 0,-58.012 43.051,-65.043 59.379,-65.043 16.36,0 59.41,7.031 59.41,65.043 0,58.008 -43.05,65.078 -59.41,65.078 -16.328,0 -59.379,-7.07 -59.379,-65.078 z m 25.821,0 c 0,34.609 19.609,43.199 33.558,43.199 13.942,0 33.59,-8.59 33.59,-43.199 0,-34.57 -19.648,-43.211 -33.59,-43.211 -13.949,0 -33.558,8.641 -33.558,43.211"
           style="fill:#000000;fill-opacity:1;fill-rule:evenodd;stroke:none"
           id="path895"
           inkscape:export-xdpi="600"
           inkscape:export-ydpi="600" /><path
           d="m 341.129,447.53444 h -0.348 l -49.062,86.051 h -27.188 v -123.59 h 24.098 v 88.129 h 0.351 l 50.43,-88.129 h 25.82 v 123.59 h -24.101 v -86.051"
           style="fill:#000000;fill-opacity:1;fill-rule:nonzero;stroke:none"
           id="path897"
           inkscape:export-xdpi="600"
           inkscape:export-ydpi="600" /><path
           d="m 464.609,447.53444 h -0.347 l -49.032,86.051 h -27.218 v -123.59 h 24.097 v 88.129 h 0.352 l 50.43,-88.129 h 25.82 v 123.59 h -24.102 v -86.051"
           style="fill:#000000;fill-opacity:1;fill-rule:nonzero;stroke:none"
           id="path899"
           inkscape:export-xdpi="600"
           inkscape:export-ydpi="600" /><path
           d="m 603.59,533.58544 h -90.86 v -123.59 h 93.79 v 21.879 h -68.469 v 32.031 h 60.23 v 21.829 h -60.23 v 25.98 h 65.539 v 21.871"
           style="fill:#000000;fill-opacity:1;fill-rule:nonzero;stroke:none"
           id="path901"
           inkscape:export-xdpi="600"
           inkscape:export-ydpi="600" /><path
           d="m 684.84,455.81644 h 28.711 c -5.313,-24.961 -24.25,-27.231 -29.922,-27.231 -17.578,0 -35.969,8.789 -35.969,42.539 0,31.641 17.031,44.379 35.43,44.379 18.281,0 27.031,-15.469 27.031,-20.277 h 25.82 c -1.371,17.039 -16.332,41.648 -54.222,41.648 -41.641,0.153 -60.391,-31.679 -60.391,-65.429 0,-43.36 27.031,-64.692 56.801,-64.692 22.531,0 31.992,11.172 38.551,18.75 l 2.582,-15.508 h 17.218 v 66.641 h -51.64 v -20.82"
           style="fill:#000000;fill-opacity:1;fill-rule:nonzero;stroke:none"
           id="path903"
           inkscape:export-xdpi="600"
           inkscape:export-ydpi="600" /><path
           d="m 786.129,435.46444 h 45.59 l 7.929,-25.469 h 28.051 l -43.519,123.59 h -29.801 l -44.07,-123.59 h 27.23 z m 22.742,70.231 h 0.309 l 15.351,-48.86 h -31.519 l 15.859,48.86"
           style="fill:#000000;fill-opacity:1;fill-rule:evenodd;stroke:none"
           id="path905"
           inkscape:export-xdpi="600"
           inkscape:export-ydpi="600" /><path
           d="m 958.871,447.53444 h -0.351 l -49.071,86.051 H 882.27 v -123.59 h 24.101 v 88.129 h 0.348 l 50.429,-88.129 h 25.821 v 123.59 h -24.098 v -86.051"
           style="fill:#000000;fill-opacity:1;fill-rule:nonzero;stroke:none"
           id="path907"
           inkscape:export-xdpi="600"
           inkscape:export-ydpi="600" /><path
           d="m 1047.66,448.04644 c 0,-15.32 7.73,-41.293 52.85,-41.293 10.86,0 48.71,3.242 48.71,40.434 0,22.187 -15.51,29.097 -32.34,33.238 l -30.12,7.379 c -5.2,1.211 -13.09,3.281 -13.09,12.93 0,11.171 11.68,14.769 21.49,14.769 22.57,0 24.64,-13.047 25.31,-18.558 h 24.8 c -0.19,15.121 -10.35,39.929 -48.2,39.929 -40.12,0 -47.5,-24.258 -47.5,-38.051 0,-27.187 19.26,-31.679 39.22,-36.328 l 13.28,-3.09 c 13.09,-3.082 22.34,-5.66 22.34,-15.308 0,-13.082 -13.55,-16.012 -25.78,-16.012 -22.58,0 -26.01,13.078 -26.17,19.961 h -24.8"
           style="fill:#000000;fill-opacity:1;fill-rule:nonzero;stroke:none"
           id="path909"
           inkscape:export-xdpi="600"
           inkscape:export-ydpi="600" /><path
           d="m 1226.13,456.32344 41.29,77.262 h -29.26 l -24.45,-53.711 -25.62,53.711 h -30.47 l 42.69,-76.949 v -46.641 h 25.82 v 46.328"
           style="fill:#000000;fill-opacity:1;fill-rule:nonzero;stroke:none"
           id="path911"
           inkscape:export-xdpi="600"
           inkscape:export-ydpi="600" /><path
           d="m 1275.86,448.04644 c 0,-15.32 7.73,-41.293 52.81,-41.293 10.86,0 48.71,3.242 48.71,40.434 0,22.187 -15.47,29.097 -32.34,33.238 l -30.12,7.379 c -5.15,1.211 -13.08,3.281 -13.08,12.93 0,11.171 11.71,14.769 21.52,14.769 22.54,0 24.61,-13.047 25.27,-18.558 h 24.81 c -0.16,15.121 -10.31,39.929 -48.21,39.929 -40.07,0 -47.5,-24.258 -47.5,-38.051 0,-27.187 19.3,-31.679 39.26,-36.328 l 13.24,-3.09 c 13.09,-3.082 22.39,-5.66 22.39,-15.308 0,-13.082 -13.6,-16.012 -25.82,-16.012 -22.54,0 -26.02,13.078 -26.17,19.961 h -24.77"
           style="fill:#000000;fill-opacity:1;fill-rule:nonzero;stroke:none"
           id="path913"
           inkscape:export-xdpi="600"
           inkscape:export-ydpi="600" /><path
           d="m 1448.79,511.71444 h 37.34 v 21.871 h -100.5 v -21.871 h 37.34 v -101.719 h 25.82 v 101.719"
           style="fill:#000000;fill-opacity:1;fill-rule:nonzero;stroke:none"
           id="path915"
           inkscape:export-xdpi="600"
           inkscape:export-ydpi="600" /><path
           d="m 1591.56,533.58544 h -90.86 v -123.59 h 93.79 v 21.879 h -68.47 v 32.031 h 60.19 v 21.829 h -60.19 v 25.98 h 65.54 v 21.871"
           style="fill:#000000;fill-opacity:1;fill-rule:nonzero;stroke:none"
           id="path917"
           inkscape:export-xdpi="600"
           inkscape:export-ydpi="600" /><path
           d="m 1733.36,533.58544 h -37.34 l -22.04,-97.422 h -0.35 l -22.34,97.422 h -37.74 v -123.59 h 24.11 v 103.282 h 0.35 l 22.58,-103.282 h 25.27 l 23.09,103.282 h 0.31 v -103.282 h 24.1 v 123.59"
           style="fill:#000000;fill-opacity:1;fill-rule:nonzero;stroke:none"
           id="path919"
           inkscape:export-xdpi="600"
           inkscape:export-ydpi="600" /><path
           d="m 1751.02,448.04644 c 0,-15.32 7.77,-41.293 52.85,-41.293 10.86,0 48.71,3.242 48.71,40.434 0,22.187 -15.51,29.097 -32.38,33.238 l -30.08,7.379 c -5.2,1.211 -13.09,3.281 -13.09,12.93 0,11.171 11.68,14.769 21.49,14.769 22.57,0 24.61,-13.047 25.31,-18.558 h 24.8 c -0.19,15.121 -10.35,39.929 -48.2,39.929 -40.12,0 -47.5,-24.258 -47.5,-38.051 0,-27.187 19.26,-31.679 39.22,-36.328 l 13.24,-3.09 c 13.13,-3.082 22.38,-5.66 22.38,-15.308 0,-13.082 -13.59,-16.012 -25.82,-16.012 -22.54,0 -25.97,13.078 -26.13,19.961 h -24.8"
           style="fill:#000000;fill-opacity:1;fill-rule:nonzero;stroke:none"
           id="path921"
           inkscape:export-xdpi="600"
           inkscape:export-ydpi="600" /><path
           d="m 1895.23,435.15544 h -25.82 v -25.16 h 14.46 c -0.86,-14.449 -7.89,-17.539 -14.46,-19.769 v -9.141 h 0.2 c 14.61,3.442 25.62,11.219 25.62,32.352 v 21.718"
           style="fill:#000000;fill-opacity:1;fill-rule:nonzero;stroke:none"
           id="path923"
           inkscape:export-xdpi="600"
           inkscape:export-ydpi="600" /><path
           d="m 1956.64,409.99544 h 25.8203 v 123.59 H 1956.64 Z"
           style="fill:#000000;fill-opacity:1;fill-rule:nonzero;stroke:none"
           id="path925"
           inkscape:export-xdpi="600"
           inkscape:export-ydpi="600" /><path
           d="m 2081.17,447.53444 h -0.35 l -49.02,86.051 h -27.23 v -123.59 h 24.1 v 88.129 h 0.35 l 50.43,-88.129 h 25.82 v 123.59 h -24.1 v -86.051"
           style="fill:#000000;fill-opacity:1;fill-rule:nonzero;stroke:none"
           id="path927"
           inkscape:export-xdpi="600"
           inkscape:export-ydpi="600" /><path
           d="m 2233.95,493.15544 c -1.37,18.25 -16.37,43.719 -53.36,43.719 -31.84,0 -56.8,-22.039 -56.8,-65.238 0,-42.691 23.55,-64.883 56.44,-64.883 30.98,0 48.56,18.75 53.72,45.582 h -25.82 c -3.09,-15.109 -13.09,-23.238 -27.39,-23.238 -21.83,0 -30.62,20 -30.62,42.187 0,34.922 18.24,43.2 30.62,43.2 21.37,0 25.31,-13.938 27.39,-21.329 h 25.82"
           style="fill:#000000;fill-opacity:1;fill-rule:nonzero;stroke:none"
           id="path929"
           inkscape:export-xdpi="600"
           inkscape:export-ydpi="600" /><path
           d="m 2250.74,409.99544 h 25.8203 v 25.1602 H 2250.74 Z"
           style="fill:#000000;fill-opacity:1;fill-rule:nonzero;stroke:none"
           id="path931"
           inkscape:export-xdpi="600"
           inkscape:export-ydpi="600" /></g></g></g></svg>
