<?xml version="1.0" encoding="UTF-8" standalone="no"?>
<svg
   width="3cm"
   height="3cm"
   viewBox="0 0 30 29.999999"
   version="1.1"
   id="svg8"
   inkscape:version="1.1.1 (3bf5ae0d25, 2021-09-20, custom)"
   sodipodi:docname="industrial.svg"
   inkscape:export-filename="/home/aloreaux/Documents/tex/health.png"
   inkscape:export-xdpi="600"
   inkscape:export-ydpi="600"
   xmlns:inkscape="http://www.inkscape.org/namespaces/inkscape"
   xmlns:sodipodi="http://sodipodi.sourceforge.net/DTD/sodipodi-0.dtd"
   xmlns="http://www.w3.org/2000/svg"
   xmlns:svg="http://www.w3.org/2000/svg"
   xmlns:rdf="http://www.w3.org/1999/02/22-rdf-syntax-ns#"
   xmlns:cc="http://creativecommons.org/ns#"
   xmlns:dc="http://purl.org/dc/elements/1.1/">
  <defs
     id="defs2" />
  <sodipodi:namedview
     id="base"
     pagecolor="#ffffff"
     bordercolor="#666666"
     borderopacity="1.0"
     inkscape:pageopacity="0.0"
     inkscape:pageshadow="2"
     inkscape:zoom="4"
     inkscape:cx="88.124999"
     inkscape:cy="54.25"
     inkscape:document-units="cm"
     inkscape:current-layer="layer1"
     inkscape:document-rotation="0"
     showgrid="false"
     borderlayer="false"
     showborder="true"
     inkscape:showpageshadow="false"
     units="cm"
     showguides="false"
     inkscape:guide-bbox="true"
     inkscape:snap-midpoints="true"
     fit-margin-top="0"
     fit-margin-left="0"
     fit-margin-right="0"
     fit-margin-bottom="0"
     inkscape:window-width="1920"
     inkscape:window-height="1136"
     inkscape:window-x="1920"
     inkscape:window-y="27"
     inkscape:window-maximized="1"
     inkscape:pagecheckerboard="0"
     inkscape:snap-smooth-nodes="true"
     inkscape:snap-intersection-paths="true"
     inkscape:object-paths="false"
     inkscape:snap-object-midpoints="true">
    <sodipodi:guide
       position="40,30"
       orientation="-1,0"
       id="guide833"
       inkscape:label=""
       inkscape:locked="false"
       inkscape:color="rgb(0,0,255)" />
    <sodipodi:guide
       position="0,-9.9999999"
       orientation="0,1"
       id="guide835"
       inkscape:label=""
       inkscape:locked="false"
       inkscape:color="rgb(0,0,255)" />
    <sodipodi:guide
       position="0,30"
       orientation="-1,0"
       id="guide839"
       inkscape:label=""
       inkscape:locked="false"
       inkscape:color="rgb(0,0,255)" />
    <sodipodi:guide
       position="49.999999,30"
       orientation="-1,0"
       id="guide844"
       inkscape:label=""
       inkscape:locked="false"
       inkscape:color="rgb(0,0,255)" />
    <sodipodi:guide
       position="0,-20"
       orientation="0,1"
       id="guide846"
       inkscape:label=""
       inkscape:locked="false"
       inkscape:color="rgb(0,0,255)" />
    <sodipodi:guide
       position="2,30"
       orientation="-1,0"
       id="guide985"
       inkscape:label=""
       inkscape:locked="false"
       inkscape:color="rgb(0,0,255)" />
    <sodipodi:guide
       position="0,2"
       orientation="0,1"
       id="guide989"
       inkscape:label=""
       inkscape:locked="false"
       inkscape:color="rgb(0,0,255)" />
    <sodipodi:guide
       position="28,30"
       orientation="-1,0"
       id="guide991"
       inkscape:label=""
       inkscape:locked="false"
       inkscape:color="rgb(0,0,255)" />
    <sodipodi:guide
       position="15,39.822154"
       orientation="-1,0"
       id="guide9772"
       inkscape:label=""
       inkscape:locked="false"
       inkscape:color="rgb(0,0,255)" />
  </sodipodi:namedview>
  <metadata
     id="metadata5">
    <rdf:RDF>
      <cc:Work
         rdf:about="">
        <dc:format>image/svg+xml</dc:format>
        <dc:type
           rdf:resource="http://purl.org/dc/dcmitype/StillImage" />
      </cc:Work>
    </rdf:RDF>
  </metadata>
  <g
     inkscape:label="Layer 1"
     inkscape:groupmode="layer"
     id="layer1">
    <path
       style="fill:#0088aa;fill-opacity:1;stroke:none;stroke-width:0.15875px;stroke-linecap:butt;stroke-linejoin:miter;stroke-opacity:1"
       d="M 0,-4.61262e-6 H 29.999999 V 29.999994 H 0 Z"
       id="path908" />
    <path
       d="M 13.018417,5.3741944 9.8517977,23.332551 3.8155424,22.368595 l -0.065543,0.371629 7.4300596,1.43449 c 4e-4,2.66e-4 7.99e-4,6.65e-4 0.0015,9.32e-4 l 0.04025,0.0072 3.27068,-18.5486867 z M 24.304773,20.291836 c 0.794821,2.66e-4 1.498061,0.392419 1.932466,0.991615 v -1.681718 c 0,-0.489343 -0.396729,-0.88612 -0.886073,-0.88612 h -8.186554 c 1.040104,0.579799 1.746206,1.689796 1.74663,2.962237 -1.33e-4,0.708485 -0.219761,1.366547 -0.593173,1.911281 h 3.779493 c -0.115931,-0.280367 -0.180865,-0.586923 -0.181053,-0.908613 3.99e-4,-1.316552 1.071679,-2.388279 2.388264,-2.388682 z M 15.52097,18.287543 c 0.03219,0 0.06357,0.0039 0.09557,0.005 l 2.281011,-7.299585 0.0034,-0.01474 c 0,0 5.31e-4,-0.0017 0.0061,-0.02008 0.03809,-0.13742 0.280376,-0.89757 0.735096,-1.5597571 0.225861,-0.331423 0.500605,-0.6345065 0.803453,-0.8402374 0.306322,-0.2061528 0.625874,-0.3251351 1.029313,-0.3272928 h 3.322382 v 9.9316283 h 1.551077 V 6.6806926 h -4.873509 c -0.788768,-0.00281 -1.476431,0.2780774 -2.00495,0.6683803 -0.797403,0.588574 -1.287593,1.3914177 -1.606019,2.038686 -0.286005,0.588198 -0.424457,1.0606521 -0.454953,1.1692651 l -2.554209,8.172664 c 0.492816,-0.27972 1.060465,-0.441725 1.66621,-0.442145 z m 6.47727,-5.250767 v 3.381216 h -2.630543 c -0.489344,0 -0.886074,0.396777 -0.886074,0.886076 v 0.858393 h 4.762732 v -5.125685 c 0,-0.344183 -0.279061,-0.623011 -0.623009,-0.623011 -0.344185,0 -0.623106,0.278828 -0.623106,0.623011 z m 2.306533,7.698117 c -1.074728,3.98e-4 -1.944803,0.870714 -1.945649,1.945442 7.99e-4,1.07469 0.870921,1.944765 1.945649,1.94546 1.074729,-6.64e-4 1.944852,-0.87077 1.945227,-1.94546 -3.99e-4,-1.074728 -0.870498,-1.945039 -1.945227,-1.945442 z m 0,2.428504 c -0.266957,-2.65e-4 -0.482822,-0.216536 -0.483245,-0.483062 3.99e-4,-0.266972 0.216288,-0.482862 0.483245,-0.483101 0.266538,2.66e-4 0.482824,0.216129 0.483293,0.483101 -5.32e-4,0.266526 -0.216756,0.482824 -0.483293,0.483062 z m -8.783615,-4.433006 c -1.628301,7.97e-4 -2.946859,1.319344 -2.947937,2.947698 0.0011,1.628292 1.319635,2.946827 2.947937,2.947706 1.628303,-9.31e-4 2.946811,-1.319414 2.947281,-2.947706 -5.32e-4,-1.628354 -1.318979,-2.946901 -2.947281,-2.947698 z m 0,3.679711 c -0.40433,-4e-4 -0.731625,-0.328363 -0.732281,-0.732013 6.65e-4,-0.404349 0.327951,-0.731667 0.732281,-0.73207 0.403861,3.99e-4 0.73167,0.327721 0.732045,0.73207 -3.98e-4,0.40365 -0.328184,0.73161 -0.732045,0.732013"
       style="fill:#ffffff;fill-opacity:1;fill-rule:nonzero;stroke:none;stroke-width:0.00469169"
       id="path3160" />
  </g>
</svg>
