<?xml version="1.0" encoding="UTF-8" standalone="no"?>
<!-- Created with Inkscape (http://www.inkscape.org/) -->

<svg
   version="1.1"
   id="svg1"
   width="1024"
   height="1024"
   viewBox="0 0 1024 1024"
   sodipodi:docname="favicon.svg"
   inkscape:version="1.4.2 (ebf0e940d0, 2025-05-08)"
   inkscape:export-filename="favicon32x32.png"
   inkscape:export-xdpi="3"
   inkscape:export-ydpi="3"
   xmlns:inkscape="http://www.inkscape.org/namespaces/inkscape"
   xmlns:sodipodi="http://sodipodi.sourceforge.net/DTD/sodipodi-0.dtd"
   xmlns="http://www.w3.org/2000/svg"
   xmlns:svg="http://www.w3.org/2000/svg">
  <defs
     id="defs1" />
  <sodipodi:namedview
     id="namedview1"
     pagecolor="#ffffff"
     bordercolor="#666666"
     borderopacity="1.0"
     inkscape:showpageshadow="2"
     inkscape:pageopacity="0.0"
     inkscape:pagecheckerboard="0"
     inkscape:deskcolor="#d1d1d1"
     showgrid="false"
     inkscape:zoom="0.78306552"
     inkscape:cx="547.84688"
     inkscape:cy="554.23204"
     inkscape:window-width="2560"
     inkscape:window-height="1377"
     inkscape:window-x="0"
     inkscape:window-y="0"
     inkscape:window-maximized="1"
     inkscape:current-layer="g1"
     inkscape:export-bgcolor="#ffffff00" />
  <g
     inkscape:groupmode="layer"
     inkscape:label="Image"
     id="g1">
    <path
       id="path2"
       style="fill:#ffffff;stroke-width:0.364485"
       d="M 1012,511.99998 A 499.99998,499.99998 0 0 1 511.99999,1012 499.99998,499.99998 0 0 1 12.000002,511.99998 499.99998,499.99998 0 0 1 511.99999,12 499.99998,499.99998 0 0 1 1012,511.99998 Z" />
    <path
       style="fill:#24509f;fill-opacity:1;stroke-width:1.08108"
       d="M 251.58086,870.32436 C 233.12432,865.36076 219.23654,851.15543 213.8653,831.74619 212.1187,825.435 212,805.0186 212,510.95198 c 0,-301.78288 0.0778,-314.3057 1.98724,-320.49437 5.66887,-18.37193 18.47287,-32.12154 34.19373,-36.71903 5.32033,-1.55591 25.27405,-1.72684 199.78065,-1.71138 192.92011,0.0171 193.90238,0.0281 200.48616,2.24602 3.63892,1.22586 8.84573,3.74258 11.57071,5.59269 3.64486,2.47469 108.86692,105.96288 143.175,140.8158 1.75592,1.78378 4.45573,5.91892 5.99962,9.18919 L 812,315.81685 v 254.59459 c 0,243.9283 -0.0832,254.86398 -1.98422,261.02456 -6.28172,20.35624 -18.76616,33.32587 -37.40119,38.85488 -5.33048,1.58154 -29.35384,1.73562 -260.54054,1.67104 -218.82367,-0.0611 -255.48843,-0.29163 -260.49319,-1.63756 z m 255.828,-58.71371 c 5.62184,-2.893 261.68487,-259.20492 264.86141,-265.11884 2.82238,-5.25455 3.22238,-13.24071 0.92908,-18.54753 -2.384,-5.51649 -32.78908,-35.93297 -38.51643,-38.5309 -6.04475,-2.74185 -12.20962,-2.80022 -17.81805,-0.16869 -2.97438,1.39558 -38.06984,35.80929 -112.41882,110.23492 L 496.35157,707.68553 444.44606,655.9851 c -44.36303,-44.18776 -52.55211,-51.88365 -56.35525,-52.96135 -10.8386,-3.0714 -14.45697,-1.01484 -35.14756,19.97693 -17.33082,17.58318 -19.34574,20.54653 -19.29784,28.38289 0.0562,9.13083 1.11708,10.32187 76.51827,85.86046 39.65859,39.7309 73.56291,73.00736 75.34281,73.94769 7.64032,4.03635 14.61362,4.16973 21.90237,0.41893 z m 75.60076,-286.54349 c 7.77957,-3.53205 12.39352,-13.10743 10.69027,-22.18599 -0.92227,-4.9163 -6.37318,-11.15836 -11.96086,-13.69678 -4.11881,-1.87114 -11.13795,-1.96871 -141.63092,-1.96871 -130.89481,0 -137.50108,0.0925 -141.66638,1.98459 -15.41265,7.001 -16.24595,28.29715 -1.39492,35.64822 l 4.68292,2.318 138.37838,-0.023 c 133.604,-0.022 138.53438,-0.0937 142.90151,-2.07645 z m 132.5386,-98.8469 c 14.3694,-6.14823 16.22183,-26.38481 3.23016,-35.28685 l -3.9173,-2.68413 H 507.12194 299.3827 l -4.46411,3.09365 c -5.39557,3.73914 -8.86454,10.4058 -8.86454,17.03601 0,6.2812 4.77254,14.05111 10.48098,17.06347 4.07643,2.15112 5.97503,2.1712 209.824,2.21854 172.34865,0.04 206.27459,-0.19361 209.18919,-1.44069 z M 567.38692,324.51649 c 7.92584,-3.31164 13.73373,-13.77427 12.196,-21.97069 -0.936,-4.98943 -4.47157,-10.19086 -9.0679,-13.34054 l -3.76161,-2.5776 -131.4307,-0.32011 c -89.41471,-0.21777 -132.68369,0.0424 -135.34995,0.81377 -2.29049,0.66271 -5.73741,3.10653 -8.29493,5.88111 -7.32291,7.94447 -7.26778,17.86362 0.14628,26.30776 1.85838,2.11665 4.84746,4.4883 6.64227,5.27037 5.11427,2.22842 263.58119,2.16684 268.92054,-0.0641 z m 192.18065,0.67369 c 0,-1.7377 -121.06562,-121.40241 -122.14725,-120.73389 -0.7147,0.44169 -1.09232,17.6747 -1.0854,49.53247 l 0.0108,48.85512 2.54918,5.4054 c 3.36811,7.14162 9.46357,12.99728 16.2452,15.60604 5.17394,1.99034 8.5147,2.12256 54.96821,2.17546 27.2027,0.031 49.45946,-0.34729 49.45946,-0.8406 z"
       id="path1" />
  </g>
</svg>
