<?xml version="1.0" encoding="UTF-8" standalone="no"?>
<svg
   width="3cm"
   height="3cm"
   viewBox="0 0 30 29.999999"
   version="1.1"
   id="svg8"
   inkscape:version="1.1.1 (3bf5ae0d25, 2021-09-20, custom)"
   sodipodi:docname="edu.svg"
   inkscape:export-filename="/home/aloreaux/Documents/tex/assets/grow.png"
   inkscape:export-xdpi="600"
   inkscape:export-ydpi="600"
   xmlns:inkscape="http://www.inkscape.org/namespaces/inkscape"
   xmlns:sodipodi="http://sodipodi.sourceforge.net/DTD/sodipodi-0.dtd"
   xmlns="http://www.w3.org/2000/svg"
   xmlns:svg="http://www.w3.org/2000/svg"
   xmlns:rdf="http://www.w3.org/1999/02/22-rdf-syntax-ns#"
   xmlns:cc="http://creativecommons.org/ns#"
   xmlns:dc="http://purl.org/dc/elements/1.1/">
  <defs
     id="defs2">
    <linearGradient
       x1="0"
       y1="0"
       x2="1"
       y2="0"
       gradientUnits="userSpaceOnUse"
       gradientTransform="matrix(2908.37,-2439.85,-2439.85,-2908.37,253.501,2177.9)"
       spreadMethod="pad"
       id="linearGradient25324">
      <stop
         style="stop-opacity:1;stop-color:#2eacce"
         offset="0"
         id="stop25318" />
      <stop
         style="stop-opacity:1;stop-color:#2eacce"
         offset="0.06722509"
         id="stop25320" />
      <stop
         style="stop-opacity:1;stop-color:#0981a3"
         offset="1"
         id="stop25322" />
    </linearGradient>
  </defs>
  <sodipodi:namedview
     id="base"
     pagecolor="#ffffff"
     bordercolor="#666666"
     borderopacity="1.0"
     inkscape:pageopacity="0.0"
     inkscape:pageshadow="2"
     inkscape:zoom="3.959798"
     inkscape:cx="61.240498"
     inkscape:cy="23.486047"
     inkscape:document-units="mm"
     inkscape:current-layer="g25316"
     inkscape:document-rotation="0"
     showgrid="false"
     borderlayer="false"
     showborder="true"
     inkscape:showpageshadow="false"
     units="cm"
     showguides="true"
     inkscape:guide-bbox="true"
     inkscape:snap-midpoints="true"
     fit-margin-top="0"
     fit-margin-left="0"
     fit-margin-right="0"
     fit-margin-bottom="0"
     inkscape:window-width="1920"
     inkscape:window-height="1136"
     inkscape:window-x="1920"
     inkscape:window-y="27"
     inkscape:window-maximized="1"
     inkscape:pagecheckerboard="0">
    <sodipodi:guide
       position="40,30"
       orientation="-1,0"
       id="guide833"
       inkscape:label=""
       inkscape:locked="false"
       inkscape:color="rgb(0,0,255)" />
    <sodipodi:guide
       position="0,-9.9999999"
       orientation="0,1"
       id="guide835"
       inkscape:label=""
       inkscape:locked="false"
       inkscape:color="rgb(0,0,255)" />
    <sodipodi:guide
       position="0,30"
       orientation="-1,0"
       id="guide839"
       inkscape:label=""
       inkscape:locked="false"
       inkscape:color="rgb(0,0,255)" />
    <sodipodi:guide
       position="49.999999,30"
       orientation="-1,0"
       id="guide844"
       inkscape:label=""
       inkscape:locked="false"
       inkscape:color="rgb(0,0,255)" />
    <sodipodi:guide
       position="0,-20"
       orientation="0,1"
       id="guide846"
       inkscape:label=""
       inkscape:locked="false"
       inkscape:color="rgb(0,0,255)" />
  </sodipodi:namedview>
  <metadata
     id="metadata5">
    <rdf:RDF>
      <cc:Work
         rdf:about="">
        <dc:format>image/svg+xml</dc:format>
        <dc:type
           rdf:resource="http://purl.org/dc/dcmitype/StillImage" />
      </cc:Work>
    </rdf:RDF>
  </metadata>
  <g
     inkscape:label="Layer 1"
     inkscape:groupmode="layer"
     id="layer1">
    <path
       style="fill:#ffcc00;fill-opacity:1;stroke:none;stroke-width:0.15875px;stroke-linecap:butt;stroke-linejoin:miter;stroke-opacity:1"
       d="M 0.08458267,0.05478841 H 30.084582 V 30.054787 H 0.08458267 Z"
       id="path908" />
    <g
       id="g3400"
       transform="translate(0,1.5)" />
    <g
       id="g3408"
       transform="translate(0,3)" />
    <g
       id="g3416"
       transform="translate(0,4.5)" />
    <g
       id="g3424"
       transform="translate(0,6)" />
    <g
       id="g3432"
       transform="translate(0,7.5)" />
    <g
       id="g3440"
       transform="translate(0,9)" />
    <g
       id="g3448"
       transform="translate(0,10.5)" />
    <g
       id="g3456"
       transform="translate(0,12)" />
    <g
       id="g3464"
       transform="translate(0,13.5)" />
    <g
       id="g25316"
       transform="matrix(0.03527778,0,0,-0.03527778,-20.075543,141.72223)">
      <path
         d="m 1334.6118,3533.073 c -13.6363,-4.3811 -380.75955,-137.9407 -380.75955,-137.9407 l -156.75471,81.0533 c -2.09091,-4.905 -3.43092,-10.1849 -3.43092,-15.7473 0,-10.6892 -2.64663,-21.4329 -6.74729,-31.9316 60.08672,-31.7092 132.50052,-69.4796 143.49692,-74.967 23.5901,-11.7971 44.191,-2.2029 44.191,-2.2029 0,0 345.57725,128.3773 372.54175,138.8755 26.9697,10.5085 14.1089,51.4329 -12.5372,42.8607 z m -337.945,241.0166 118.8699,-61.6281 68.2279,24.2116 -121.0578,59.4606 z m -299.75349,-245.6904 13.24548,-7.1238 c -4.04878,-8.377 -7.08833,-18.2023 -8.31226,-29.7072 -0.6641,-6.2763 -1.56856,-11.7925 -2.72624,-16.6872 -30.10421,15.9065 -37.74826,20.3339 -37.74826,20.3339 -1.03955,1.6076 -72.77851,92.3316 -2.19928,183.8209 l 410.41125,154.4527 c 0,0 265.3719,-140.2154 283.0452,-149.7378 17.6528,-9.5274 15.8192,-34.1037 0,-40.0615 -15.8397,-5.9579 -359.7066,-135.5622 -377.87305,-141.5509 -12.9378,-4.2681 -32.4447,-4.114 -44.1755,2.1931 -11.736,6.3277 -243.10492,129.8868 -243.10492,129.8868 -9.90291,-15.8449 -27.51048,-59.8561 9.43758,-105.819 z m 123.16005,-9.0652 c -11.00461,-4.9461 -39.61216,-28.6081 -39.61216,-58.8957 0,-30.2762 -26.9604,-64.8951 -40.72155,-87.4615 -13.74935,-22.5429 6.05289,60.5278 -12.09809,53.929 -18.16279,-6.6009 -77.58128,-19.8161 -52.82374,-4.4016 24.75804,15.4021 36.31221,31.3599 40.16634,67.6773 3.85002,36.3122 28.05595,52.8145 44.01586,61.6229 0,0 39.06053,-19.8048 61.07334,-32.4704"
         style="fill:#f9fef7;fill-opacity:1;fill-rule:nonzero;stroke:none;stroke-width:0.51361"
         id="path25476"
         sodipodi:nodetypes="cccsccccccccccccccccccccccccscccccc" />
    </g>
  </g>
</svg>
