<?xml version="1.0" encoding="UTF-8" standalone="no"?>
<!-- Created with Inkscape (http://www.inkscape.org/) -->

<svg
   width="113.386"
   height="113.386"
   viewBox="0 0 30.000046 30.000046"
   version="1.1"
   id="svg1"
   xml:space="preserve"
   sodipodi:docname="firedept.svg"
   inkscape:version="1.4 (e7c3feb100, 2024-10-09)"
   xmlns:inkscape="http://www.inkscape.org/namespaces/inkscape"
   xmlns:sodipodi="http://sodipodi.sourceforge.net/DTD/sodipodi-0.dtd"
   xmlns="http://www.w3.org/2000/svg"
   xmlns:svg="http://www.w3.org/2000/svg"><sodipodi:namedview
     id="namedview1"
     pagecolor="#ffffff"
     bordercolor="#666666"
     borderopacity="1.0"
     inkscape:showpageshadow="2"
     inkscape:pageopacity="0.0"
     inkscape:pagecheckerboard="0"
     inkscape:deskcolor="#d1d1d1"
     inkscape:document-units="mm"
     inkscape:zoom="2.8284271"
     inkscape:cx="33.234019"
     inkscape:cy="112.07642"
     inkscape:window-width="2560"
     inkscape:window-height="1377"
     inkscape:window-x="0"
     inkscape:window-y="0"
     inkscape:window-maximized="1"
     inkscape:current-layer="layer1"
     showgrid="false" /><defs
     id="defs1">
	
	
	
	
	
	
	
	
	
	
	
	
	
	
	
	
	

	
	
	
	
	
	
	
	
	
	
	
	
	

		
		
	
			
			
				
			
			
			
				
			
			
			
			
			
				
			
			
		</defs><g
     inkscape:label="Layer 1"
     inkscape:groupmode="layer"
     id="layer1"><path
       id="rect1"
       style="fill:#ce2029;fill-opacity:1;stroke-width:0.0180736"
       d="M 1.8990325e-7,1.8990325e-7 H 30.000046 V 30.000046 H 1.8990325e-7 Z" /><g
       id="g24"><g
         id="g22"
         transform="matrix(1.1111115,0,0,1.1111115,-1.6666752,-1.6666753)"><path
           style="fill:#ffffff;stroke-width:0.182192"
           d="M 23.661072,12.441228 C 23.466855,12.156097 23.26608,11.861129 23.098463,11.498384 22.971111,11.222728 22.9436,10.807694 22.917364,10.406143 22.866894,9.6500456 22.810235,8.7935606 22.040474,8.6376046 l -0.09,-0.0184 -5.19138,5.1913794 c -0.152313,-0.224096 -0.3458,-0.417766 -0.570079,-0.569532 l 5.19138,-5.1908334 -0.01822,-0.09037 c -0.156141,-0.769762 -1.013354,-0.826606 -1.769269,-0.876709 -0.401005,-0.0266 -0.816403,-0.05429 -1.092059,-0.181463 -0.362562,-0.167617 -0.657531,-0.36821 -0.942662,-0.562427 -0.652976,-0.444366 -1.270425,-0.864319 -2.558158,-0.864501 -1.288462,1.82e-4 -1.905547,0.420135 -2.558523,0.864865 -0.284948,0.193853 -0.580099,0.394628 -0.942297,0.562063 -0.275839,0.12717 -0.691055,0.154863 -1.092424,0.181463 -0.7557326,0.04992 -1.6131286,0.106765 -1.7692676,0.876708 l -0.01822,0.09037 5.1910166,5.1910164 c -0.223914,0.152131 -0.417402,0.345436 -0.56935,0.569715 l -5.1906526,-5.1910164 -0.09073,0.0184 c -0.769033,0.156139 -0.825877,1.012988 -0.876162,1.7683574 -0.0266,0.401551 -0.05448,0.816766 -0.181463,1.092423 -0.167617,0.362562 -0.368392,0.657531 -0.562609,0.942844 -0.444184,0.653158 -0.863955,1.269878 -0.864319,2.557976 3.64e-4,1.288644 0.420317,1.905729 0.864683,2.559069 0.193853,0.284767 0.394993,0.579918 0.562245,0.942298 0.126988,0.275656 0.154863,0.691054 0.181463,1.092423 0.0501,0.755733 0.107129,1.612764 0.876162,1.76872 l 0.09073,0.0184 5.1910156,-5.19138 c 0.151948,0.224096 0.345618,0.417584 0.569715,0.56935 -1.786758,1.787122 -5.1910166,5.191016 -5.1910166,5.191016 l 0.01858,0.09037 c 0.155775,0.769761 1.012806,0.826423 1.7689036,0.876708 0.401369,0.02642 0.81622,0.05411 1.092059,0.181099 0.362562,0.167616 0.657531,0.36821 0.943026,0.562791 0.652976,0.444549 1.269697,0.864319 2.55743,0.864501 1.288462,-1.82e-4 1.905546,-0.420135 2.558523,-0.864865 0.285312,-0.194035 0.580464,-0.394811 0.943026,-0.562427 0.275474,-0.126988 0.69069,-0.154681 1.091694,-0.181099 0.756097,-0.0501 1.613311,-0.106765 1.769632,-0.876708 l 0.01822,-0.09037 -5.19138,-5.19138 c 0.224096,-0.151949 0.417766,-0.345619 0.569714,-0.569533 l 5.191016,5.191198 0.09,-0.01858 c 0.769761,-0.155956 0.826241,-1.012805 0.87689,-1.768538 0.02642,-0.401369 0.05375,-0.816584 0.181463,-1.092241 0.167253,-0.362562 0.368028,-0.657531 0.562245,-0.942844 0.444366,-0.653158 0.863955,-1.269878 0.863955,-2.557976 0,-1.288644 -0.419589,-1.905547 -0.863955,-2.558705 z"
           id="path518" /><path
           id="path522"
           style="fill:#ce2029;fill-opacity:1;stroke-width:0.182192"
           d="M 15.000118,5.6466838 C 13.195324,5.6470482 12.761494,6.5081115 11.57087,7.0579671 10.737523,7.4427567 9.0111469,6.9840893 8.8061808,7.9943441 L 11.506791,10.694954 C 11.208803,10.937205 10.93551,11.208643 10.693404,11.506791 9.3657581,10.179171 7.9938273,8.8066976 7.9938273,8.8066976 6.9839368,9.0114815 7.4431211,10.737859 7.0579671,11.571387 c -0.55022,1.190625 -1.4104022,1.624483 -1.4107666,3.428731 3.644e-4,1.804795 0.8607288,2.238805 1.4107666,3.429248 0.3849718,0.833164 -0.07403,2.56024 0.9358602,2.765206 l 2.7006107,-2.700094 c 0.242049,0.297916 0.515021,0.569242 0.81287,0.81132 -1.327964,1.328097 -2.7006104,2.700611 -2.7006104,2.700611 0.2042372,1.009891 1.9309784,0.55107 2.7646894,0.93586 1.190989,0.549855 1.624665,1.410919 3.428731,1.411283 1.805159,-3.64e-4 2.238623,-0.86161 3.429248,-1.411283 0.833346,-0.384608 2.56024,0.07403 2.765206,-0.93586 7.9e-5,0 -1.372319,-1.372309 -2.700094,-2.700094 0.298078,-0.242193 0.569657,-0.515309 0.811837,-0.813387 1.327914,1.328068 2.700094,2.70061 2.700094,2.70061 1.00989,-0.204783 0.551375,-1.931707 0.936893,-2.764689 0.549856,-1.190989 1.41025,-1.624665 1.41025,-3.428731 0,-1.804976 -0.860576,-2.238776 -1.41025,-3.429765 -0.385518,-0.832982 0.073,-2.5597229 -0.936893,-2.7646889 L 19.305798,11.506791 C 19.063721,11.208929 18.792387,10.935962 18.494478,10.693921 19.822043,9.3664248 21.194055,7.9943441 21.194055,7.9943441 20.989089,6.9840893 19.262348,7.4429389 18.429366,7.0579671 17.238376,6.5079294 16.804184,5.646866 15.000118,5.6466838 Z m -5.17e-4,0.5193481 c 1.075662,3.644e-4 1.558852,0.3290476 2.169377,0.7451742 0.29424,0.2000469 0.627128,0.427083 1.041797,0.6185668 0.392078,0.1809167 0.872826,0.2126055 1.336869,0.243396 0.436532,0.028786 0.786539,0.060925 0.978752,0.153479 L 18.071248,10.381795 C 17.191877,9.7958827 16.13614,9.4536865 15.000118,9.4536865 c -1.135892,0 -2.190462,0.3434879 -3.06958,0.9296595 L 9.4733236,7.9261312 c 0.1922126,-0.092554 0.5429184,-0.124176 0.9792684,-0.1529623 0.464043,-0.03079 0.944639,-0.062814 1.336352,-0.2439127 0.414851,-0.1913016 0.747891,-0.4176388 1.042314,-0.6180501 0.610525,-0.4159444 1.092863,-0.7448098 2.168343,-0.7451742 z m 7.075021,3.3067749 c 0.09219,0.192577 0.124176,0.5429182 0.152962,0.9792682 0.03097,0.464407 0.06266,0.94464 0.243396,1.336353 0.191849,0.414305 0.41852,0.747739 0.618567,1.041797 0.415944,0.611072 0.744445,1.094049 0.745174,2.169893 -7.29e-4,1.074933 -0.32923,1.557788 -0.745174,2.16886 -0.200047,0.293876 -0.426718,0.62731 -0.618567,1.041797 -0.180734,0.391713 -0.212423,0.871945 -0.243396,1.336352 -0.02879,0.43635 -0.06077,0.786692 -0.152962,0.979269 l -2.457215,-2.457215 c 0.585875,-0.879054 0.929142,-1.933444 0.929142,-3.069063 0,-1.135927 -0.34362,-2.19049 -0.929659,-3.06958 z m -14.1484908,0.00103 2.4556638,2.4556642 c -0.5856806,0.87926 -0.9275917,1.934848 -0.9275917,3.070614 0,1.135819 0.3422902,2.191293 0.9281087,3.070614 L 7.9261312,20.526908 C 7.8335777,20.334517 7.8021077,19.984329 7.7736857,19.548161 7.7423487,19.083753 7.7107195,18.60352 7.5292562,18.211808 7.3377723,17.797138 7.1111006,17.463917 6.9106893,17.169495 6.4951093,16.558423 6.1667607,16.07578 6.1660319,15.000118 c 7.288e-4,-1.074933 0.3290774,-1.557606 0.7446574,-2.16886 0.2004113,-0.294058 0.427083,-0.62731 0.6185669,-1.041797 0.1814633,-0.391713 0.2130925,-0.871762 0.2444295,-1.336352 0.028604,-0.436167 0.060074,-0.7868739 0.1524455,-0.9792687 z m 7.0739868,0.4997111 a 5.0264316,5.0264316 0 0 1 5.026567,5.0265671 h 5.16e-4 c 0,0.242902 -0.0182,0.481397 -0.05168,0.715202 -0.0339,0.236763 -0.08508,0.467964 -0.150895,0.692981 a 5.0264316,5.0264316 0 0 1 -5.17e-4,0.0026 5.0264316,5.0264316 0 0 1 -0.0026,0.0088 5.0264316,5.0264316 0 0 1 -0.209806,0.562756 5.0264316,5.0264316 0 0 0 0.208256,-0.557589 c -0.06584,0.222257 -0.146688,0.438132 -0.241329,0.646472 a 5.0264316,5.0264316 0 0 1 -0.01395,0.03101 c -0.09416,0.203588 -0.201407,0.399714 -0.32091,0.587561 a 5.0264316,5.0264316 0 0 0 0.03204,-0.05839 5.0264316,5.0264316 0 0 1 -0.345715,0.484725 l 0.0041,0.0041 c -0.03685,0.04643 -0.07261,0.09393 -0.111105,0.13901 a 5.0264316,5.0264316 0 0 1 -0.05323,0.06098 c -0.139354,0.158021 -0.288579,0.307519 -0.446485,0.447001 a 5.0264316,5.0264316 0 0 1 -0.205672,0.161747 5.0264316,5.0264316 0 0 0 0.138493,-0.103353 c -0.0438,0.03734 -0.0898,0.07172 -0.134875,0.107487 -0.0019,-0.0019 -0.0017,-0.0022 -0.0036,-0.0041 a 5.0264316,5.0264316 0 0 1 -0.487825,0.347266 5.0264316,5.0264316 0 0 0 0.05891,-0.03204 c -0.187276,0.119078 -0.382578,0.225985 -0.585494,0.319878 a 5.0264316,5.0264316 0 0 1 -0.681096,0.256831 5.0264316,5.0264316 0 0 0 0.64854,-0.241845 c -0.208917,0.09486 -0.425635,0.175946 -0.64854,0.241845 a 5.0264316,5.0264316 0 0 1 -0.01292,0.0036 c -0.225162,0.06591 -0.456566,0.116944 -0.693497,0.150895 a 5.0264316,5.0264316 0 0 1 -5.17e-4,0 c -0.233815,0.03348 -0.472284,0.05168 -0.715202,0.05168 -0.242917,0 -0.481401,-0.0182 -0.715202,-0.05168 -0.235833,-0.03377 -0.466231,-0.08441 -0.690397,-0.149862 a 5.0264316,5.0264316 0 0 0 0.690397,0.149862 5.0264316,5.0264316 0 0 1 -0.695565,-0.151413 5.0264316,5.0264316 0 0 1 -0.0088,-0.0026 c -5.24e-4,-1.55e-4 -10e-4,-3.55e-4 -0.0015,-5.16e-4 a 5.0264316,5.0264316 0 0 1 -0.648539,-0.24133 5.0264316,5.0264316 0 0 0 0.640271,0.238746 c -0.220051,-0.06543 -0.43389,-0.145055 -0.640271,-0.238746 a 5.0264316,5.0264316 0 0 1 -0.03307,-0.0155 c -0.0028,-0.0013 -0.0055,-0.0028 -0.0083,-0.0041 -0.200506,-0.09324 -0.39412,-0.198905 -0.579293,-0.316776 A 5.0264316,5.0264316 0 0 1 11.88348,18.929634 l -0.0041,0.0041 c -0.04393,-0.0349 -0.08845,-0.06913 -0.131258,-0.10542 a 5.0264316,5.0264316 0 0 1 -0.07131,-0.0615 c -0.0026,-0.0023 -0.0051,-0.0049 -0.0078,-0.0072 -0.153021,-0.135813 -0.298056,-0.280795 -0.433565,-0.434082 a 5.0264316,5.0264316 0 0 1 -0.06356,-0.07338 c -0.133917,-0.157475 -0.258085,-0.323374 -0.37207,-0.496611 a 5.0264316,5.0264316 0 0 0 0.343648,0.458887 5.0264316,5.0264316 0 0 1 -0.348816,-0.466638 5.0264316,5.0264316 0 0 1 -0.0026,-0.0036 5.0264316,5.0264316 0 0 1 -0.03721,-0.05788 c -0.0018,-0.0029 -0.0034,-0.0059 -0.0052,-0.0088 C 10.63509,17.496072 10.531282,17.307117 10.44019,17.1111 a 5.0264316,5.0264316 0 0 0 0.309541,0.566374 5.0264316,5.0264316 0 0 1 -0.313675,-0.575159 5.0264316,5.0264316 0 0 1 -0.01395,-0.03101 5.0264316,5.0264316 0 0 1 -5.17e-4,-0.0021 5.0264316,5.0264316 0 0 1 -0.236161,-0.631486 5.0264316,5.0264316 0 0 0 0.23151,0.621668 c -0.09047,-0.200609 -0.167665,-0.408189 -0.23151,-0.621668 a 5.0264316,5.0264316 0 0 1 -0.01189,-0.04289 5.0264316,5.0264316 0 0 1 -0.145727,-0.668176 5.0264316,5.0264316 0 0 1 -0.0036,-0.02894 5.0264316,5.0264316 0 0 1 -0.050126,-0.697632 c 0,0.0049 5.02e-4,0.0096 5.168e-4,0.01447 a 5.0264316,5.0264316 0 0 0 0.048576,0.675928 c -0.030613,-0.22121 -0.047898,-0.446536 -0.048593,-0.675892 a 5.0264316,5.0264316 0 0 1 -0.00103,-0.01447 5.0264316,5.0264316 0 0 1 0.00103,-0.01447 c 6.951e-4,-0.22937 0.01798,-0.45468 0.048576,-0.675928 a 5.0264316,5.0264316 0 0 0 -0.048576,0.675928 c -1.48e-5,0.0049 -5.168e-4,0.0096 -5.168e-4,0.01447 a 5.0264316,5.0264316 0 0 1 0.050126,-0.697632 5.0264316,5.0264316 0 0 1 0.0036,-0.02894 5.0264316,5.0264316 0 0 1 0.14521,-0.668176 5.0264316,5.0264316 0 0 1 0.01085,-0.03927 5.0264316,5.0264316 0 0 1 0.23306,-0.624768 5.0264316,5.0264316 0 0 0 -0.23151,0.620117 c 0.06375,-0.212984 0.141261,-0.419953 0.23151,-0.620117 a 5.0264316,5.0264316 0 0 1 0.02687,-0.05736 5.0264316,5.0264316 0 0 1 0.305408,-0.559656 5.0264316,5.0264316 0 0 1 0.05064,-0.07855 5.0264316,5.0264316 0 0 1 0.347782,-0.465604 5.0264316,5.0264316 0 0 0 -0.341581,0.455786 c 0.111477,-0.16865 0.232339,-0.330564 0.362768,-0.484209 a 5.0264316,5.0264316 0 0 1 0.06925,-0.0801 c 0.133196,-0.150408 0.275721,-0.292273 0.425814,-0.425814 a 5.0264316,5.0264316 0 0 1 0.08527,-0.07493 c 6.55e-4,-5.57e-4 0.0014,-9.94e-4 0.0021,-0.0015 0.04162,-0.03525 0.08545,-0.06784 0.128157,-0.101802 l 0.0031,0.0031 a 5.0264316,5.0264316 0 0 1 0.432532,-0.316776 c 0.0015,-9.5e-4 0.0032,-0.0016 0.0046,-0.0026 0.18032,-0.114181 0.368467,-0.216588 0.563274,-0.307475 a 5.0264316,5.0264316 0 0 1 0.05374,-0.02532 c 0.20454,-0.0925 0.416133,-0.171896 0.63407,-0.236679 a 5.0264316,5.0264316 0 0 1 0.03566,-0.0093 c 0.218868,-0.06333 0.443378,-0.113598 0.673344,-0.146761 a 5.0264316,5.0264316 0 0 1 0.01343,-0.0016 c 6.75e-4,-9.5e-5 0.0014,9.5e-5 0.0021,0 0.23053,-0.03252 0.4655,-0.050643 0.704867,-0.050643 z m -3.117639,1.0970911 a 5.0264316,5.0264316 0 0 0 -0.131258,0.0987 5.0264316,5.0264316 0 0 1 0.131775,-0.09819 z m 7.393347,6.560839 a 5.0264316,5.0264316 0 0 0 0.288871,-0.529167 5.0264316,5.0264316 0 0 1 -0.288871,0.529167 z M 10.746114,12.32896 a 5.0264316,5.0264316 0 0 0 -0.29869,0.547254 c 0.08853,-0.189044 0.188194,-0.371864 0.29869,-0.547254 z m -0.576192,1.287777 a 5.0264316,5.0264316 0 0 0 -0.141594,0.651123 c 0.03261,-0.222177 0.0808,-0.439314 0.141594,-0.651123 z m -0.141594,2.115633 a 5.0264316,5.0264316 0 0 0 0.141594,0.650605 c -0.06074,-0.211661 -0.109003,-0.428599 -0.141594,-0.650605 z m 1.902727,3.884516 c 0.879027,0.586038 1.933406,0.929659 3.069063,0.929659 1.136022,0 2.191759,-0.342151 3.07113,-0.928108 l 2.455664,2.455664 c -0.192213,0.09255 -0.542766,0.124146 -0.978751,0.153479 -0.464408,0.03061 -0.945156,0.0623 -1.336869,0.243396 -0.414123,0.191301 -0.747223,0.418156 -1.041281,0.618567 -0.611254,0.416126 -1.094078,0.744657 -2.169376,0.744657 -1.074933,0 -1.558123,-0.328531 -2.169377,-0.744657 -0.293512,-0.200411 -0.626764,-0.427601 -1.041797,-0.619084 -0.391349,-0.180917 -0.871793,-0.21227 -1.335836,-0.242879 -0.436533,-0.02933 -0.7868433,-0.06093 -0.9797847,-0.153479 z" /><g
           id="g558"
           transform="matrix(0.18219204,0,0,0.18219204,-52.061041,-0.65765189)"
           style="fill:#ce2029;fill-opacity:1">
		<path
   style="fill:#ce2029;fill-opacity:1"
   d="m 326.343,79.822 h 6.887 c 0.066,0.337 0.101,0.682 0.101,1.03 0,0.371 -0.035,0.725 -0.101,1.063 h -4.422 v 2.853 h 3.51 c 0.068,0.359 0.102,0.709 0.102,1.045 0,0.362 -0.033,0.716 -0.102,1.065 h -3.51 v 5.078 c -0.428,0.069 -0.834,0.103 -1.217,0.103 -0.416,0 -0.832,-0.033 -1.248,-0.103 z"
   id="path557" />
	</g><g
           id="g559"
           transform="matrix(0.18219204,0,0,0.18219204,-52.061041,-0.65765189)"
           style="fill:#ce2029;fill-opacity:1">
		<path
   style="fill:#ce2029;fill-opacity:1"
   d="m 402.947,79.873 c 0.473,-0.057 0.967,-0.103 1.484,-0.144 0.518,-0.039 1.092,-0.059 1.723,-0.059 2.127,0 3.744,0.528 4.852,1.586 1.107,1.058 1.664,2.645 1.664,4.76 0,2.126 -0.564,3.691 -1.689,4.691 -1.125,1.002 -2.795,1.503 -5.012,1.503 -0.574,0 -1.104,-0.02 -1.588,-0.059 -0.483,-0.04 -0.961,-0.089 -1.434,-0.145 z m 2.48,10.177 c 0.102,0.012 0.23,0.023 0.389,0.034 0.156,0.011 0.348,0.018 0.574,0.018 0.516,0 0.998,-0.06 1.443,-0.177 0.443,-0.119 0.83,-0.336 1.156,-0.65 0.326,-0.315 0.584,-0.737 0.775,-1.267 0.191,-0.528 0.287,-1.21 0.287,-2.043 0,-0.81 -0.096,-1.484 -0.287,-2.023 -0.191,-0.542 -0.449,-0.968 -0.775,-1.283 -0.326,-0.316 -0.701,-0.537 -1.123,-0.667 -0.422,-0.129 -0.869,-0.194 -1.342,-0.194 -0.158,0 -0.342,0.002 -0.549,0.008 -0.209,0.006 -0.391,0.021 -0.549,0.043 v 8.201 z"
   id="path558" />
	</g><path
           id="path22"
           style="fill:#ffffff;stroke-width:0.102063"
           d="M 20.060179,15.000022 A 5.0601557,5.0601557 0 0 1 15.000022,20.060179 5.0601557,5.0601557 0 0 1 9.9398668,15.000022 5.0601557,5.0601557 0 0 1 15.000022,9.9398676 5.0601557,5.0601557 0 0 1 20.060179,15.000022 Z" /></g><g
         id="g23"
         transform="matrix(1.1632586,0,0,1.1632586,-29.164437,-2.5795637)"
         style="fill:#ce2029;fill-opacity:1"><path
           id="path478"
           style="fill:#ce2029;fill-opacity:1;stroke-width:0.124613"
           d="m 36.81274,12.025622 c -0.06497,0.0031 -0.12915,0.02987 -0.1788,0.07958 l -0.47284,0.472322 0.19172,0.19172 0.472322,-0.472839 0.19172,-0.191203 c -0.05621,-0.05634 -0.13049,-0.0831 -0.204122,-0.07958 z m -0.65164,0.552938 -0.699182,0.699182 -5.17e-4,-5.17e-4 -0.371553,0.194304 h -5.17e-4 l -0.307475,0.160713 c 0,0 0.113161,0.210973 0.373104,0.47129 0.260193,0.259943 0.470772,0.373103 0.470772,0.373103 l 0.0186,-0.03462 c 1.25e-4,0 0.142627,-0.272335 0.142627,-0.272335 l 0.193786,-0.371036 5.17e-4,5.16e-4 0.133325,-0.132808 0.11989,0.119889 c 0.25147,3.74e-4 1.393713,1.151351 1.393713,1.151351 l 2.670638,2.671155 0.329179,0.571025 0.338481,0.01964 0.183968,-0.183969 -0.178801,-0.179317 -3.121256,-3.12074 C 37.274564,14.139542 36.91661,13.597619 36.91661,13.597619 l -0.366903,-0.366902 0.131775,-0.131775 z m -0.989087,0.975651 0.559139,0.559656 -0.150895,0.288354 c -0.08374,-0.05458 -0.229893,-0.160254 -0.396875,-0.327112 -0.140439,-0.140563 -0.237717,-0.266718 -0.297656,-0.35295 z m 3.801319,2.371948 1.900659,1.900143 -0.120406,0.120406 -0.194304,-0.01085 -0.210323,-0.365353 -1.510502,-1.509985 z" /><path
           id="path23"
           style="fill:#ce2029;fill-opacity:1;stroke-width:0.124613"
           d="m 39.119576,12.025622 c 0.06497,0.0031 0.12915,0.02987 0.1788,0.07958 l 0.47284,0.472322 -0.19172,0.19172 -0.472322,-0.472839 -0.19172,-0.191203 c 0.05621,-0.05634 0.13049,-0.0831 0.204122,-0.07958 z m 0.65164,0.552938 0.699182,0.699182 5.17e-4,-5.17e-4 0.371553,0.194304 h 5.17e-4 l 0.307475,0.160713 c 0,0 -0.113161,0.210973 -0.373104,0.47129 -0.260193,0.259943 -0.470772,0.373103 -0.470772,0.373103 l -0.0186,-0.03462 c -1.25e-4,0 -0.142627,-0.272335 -0.142627,-0.272335 l -0.193786,-0.371036 -5.17e-4,5.16e-4 -0.133325,-0.132808 -0.11989,0.119889 c -0.25147,3.74e-4 -1.393713,1.151351 -1.393713,1.151351 l -2.670638,2.671155 -0.329179,0.571025 -0.338481,0.01964 -0.183968,-0.183969 0.178801,-0.179317 3.121256,-3.12074 c 0.575839,-0.575838 0.933793,-1.117761 0.933793,-1.117761 l 0.366903,-0.366902 -0.131775,-0.131775 z m 0.989087,0.975651 -0.559139,0.559656 0.150895,0.288354 c 0.08374,-0.05458 0.229893,-0.160254 0.396875,-0.327112 0.140439,-0.140563 0.237717,-0.266718 0.297656,-0.35295 z m -3.801319,2.371948 -1.900659,1.900143 0.120406,0.120406 0.194304,-0.01085 0.210323,-0.365353 1.510502,-1.509985 z" /></g></g></g></svg>
