<?xml version="1.0" encoding="UTF-8" standalone="no"?>
<svg
   width="3cm"
   height="3cm"
   viewBox="0 0 30 29.999999"
   version="1.1"
   id="svg8"
   inkscape:version="1.1.1 (3bf5ae0d25, 2021-09-20, custom)"
   sodipodi:docname="athletic.svg"
   inkscape:export-filename="/home/aloreaux/Documents/tex/assets/grow.png"
   inkscape:export-xdpi="600"
   inkscape:export-ydpi="600"
   xmlns:inkscape="http://www.inkscape.org/namespaces/inkscape"
   xmlns:sodipodi="http://sodipodi.sourceforge.net/DTD/sodipodi-0.dtd"
   xmlns="http://www.w3.org/2000/svg"
   xmlns:svg="http://www.w3.org/2000/svg"
   xmlns:rdf="http://www.w3.org/1999/02/22-rdf-syntax-ns#"
   xmlns:cc="http://creativecommons.org/ns#"
   xmlns:dc="http://purl.org/dc/elements/1.1/">
  <defs
     id="defs2">
    <linearGradient
       x1="0"
       y1="0"
       x2="1"
       y2="0"
       gradientUnits="userSpaceOnUse"
       gradientTransform="matrix(2908.37,-2439.85,-2439.85,-2908.37,253.501,2177.9)"
       spreadMethod="pad"
       id="linearGradient25324">
      <stop
         style="stop-opacity:1;stop-color:#2eacce"
         offset="0"
         id="stop25318" />
      <stop
         style="stop-opacity:1;stop-color:#2eacce"
         offset="0.06722509"
         id="stop25320" />
      <stop
         style="stop-opacity:1;stop-color:#0981a3"
         offset="1"
         id="stop25322" />
    </linearGradient>
  </defs>
  <sodipodi:namedview
     id="base"
     pagecolor="#ffffff"
     bordercolor="#666666"
     borderopacity="1.0"
     inkscape:pageopacity="0.0"
     inkscape:pageshadow="2"
     inkscape:zoom="3.959798"
     inkscape:cx="39.017142"
     inkscape:cy="38.638335"
     inkscape:document-units="mm"
     inkscape:current-layer="layer1"
     inkscape:document-rotation="0"
     showgrid="false"
     borderlayer="false"
     showborder="true"
     inkscape:showpageshadow="false"
     units="cm"
     showguides="true"
     inkscape:guide-bbox="true"
     inkscape:snap-midpoints="true"
     fit-margin-top="0"
     fit-margin-left="0"
     fit-margin-right="0"
     fit-margin-bottom="0"
     inkscape:window-width="1920"
     inkscape:window-height="1136"
     inkscape:window-x="1920"
     inkscape:window-y="27"
     inkscape:window-maximized="1"
     inkscape:pagecheckerboard="0">
    <sodipodi:guide
       position="40,30"
       orientation="-1,0"
       id="guide833"
       inkscape:label=""
       inkscape:locked="false"
       inkscape:color="rgb(0,0,255)" />
    <sodipodi:guide
       position="0,-9.9999999"
       orientation="0,1"
       id="guide835"
       inkscape:label=""
       inkscape:locked="false"
       inkscape:color="rgb(0,0,255)" />
    <sodipodi:guide
       position="0,30"
       orientation="-1,0"
       id="guide839"
       inkscape:label=""
       inkscape:locked="false"
       inkscape:color="rgb(0,0,255)" />
    <sodipodi:guide
       position="49.999999,30"
       orientation="-1,0"
       id="guide844"
       inkscape:label=""
       inkscape:locked="false"
       inkscape:color="rgb(0,0,255)" />
    <sodipodi:guide
       position="0,-20"
       orientation="0,1"
       id="guide846"
       inkscape:label=""
       inkscape:locked="false"
       inkscape:color="rgb(0,0,255)" />
  </sodipodi:namedview>
  <metadata
     id="metadata5">
    <rdf:RDF>
      <cc:Work
         rdf:about="">
        <dc:format>image/svg+xml</dc:format>
        <dc:type
           rdf:resource="http://purl.org/dc/dcmitype/StillImage" />
      </cc:Work>
    </rdf:RDF>
  </metadata>
  <g
     inkscape:label="Layer 1"
     inkscape:groupmode="layer"
     id="layer1">
    <path
       style="fill:#ffcc00;fill-opacity:1;stroke:none;stroke-width:0.15875px;stroke-linecap:butt;stroke-linejoin:miter;stroke-opacity:1"
       d="M 0,-3.2515971e-7 H 30 V 29.999998 H 0 Z"
       id="path908" />
    <g
       id="g3400"
       transform="translate(0,1.5)" />
    <g
       id="g3408"
       transform="translate(0,3)" />
    <g
       id="g3416"
       transform="translate(0,4.5)" />
    <g
       id="g3424"
       transform="translate(0,6)" />
    <g
       id="g3432"
       transform="translate(0,7.5)" />
    <g
       id="g3440"
       transform="translate(0,9)" />
    <g
       id="g3448"
       transform="translate(0,10.5)" />
    <g
       id="g3456"
       transform="translate(0,12)" />
    <g
       id="g3464"
       transform="translate(0,13.5)" />
    <g
       id="g25316"
       transform="matrix(0.03527778,0,0,-0.03527778,-20.160134,141.66746)">
      <g
         id="g26307"
         transform="translate(2766.1841,-10074.59)">
        <g
           id="g28240">
          <path
             d="m -2001.5238,13410.183 2.394,-0.501 c 24.3868,-5.897 72.0187,-8.285 132.5546,2.71 25.6921,4.571 50.7447,11.121 74.5185,19.439 63.3111,21.599 116.9078,54.075 159.3591,96.526 42.3757,42.376 74.8797,95.95 96.5933,159.25 8.2217,23.88 14.7315,48.993 19.3697,74.625 10.8939,60.385 8.5414,108.078 2.7074,132.578 -2.9591,12.346 -6.3663,16.768 -7.7005,18.102 -1.3216,1.321 -5.7119,4.712 -17.9537,7.695 -24.4749,5.92 -72.2189,8.337 -132.7951,-2.63 -25.6366,-4.637 -50.7434,-11.153 -74.6242,-19.369 -63.1312,-21.66 -116.6827,-54.184 -159.173,-96.675 -42.2814,-42.281 -74.779,-95.861 -96.5906,-159.254 -8.131,-23.636 -14.6786,-48.721 -19.4565,-74.562 -10.9077,-60.655 -8.5099,-108.282 -2.6244,-132.62 l 0.6847,-3.078 c 2.7628,-10.101 5.7182,-13.905 6.9265,-15.113 1.2461,-1.246 5.1883,-4.302 15.8102,-7.123 z m 376.6929,110.308 c -43.6634,-43.664 -98.7036,-77.03 -163.6021,-99.159 -24.2735,-8.515 -49.9215,-15.207 -76.1723,-19.884 -59.8222,-10.86 -107.7991,-8.918 -134.0714,-3.27 l -0.03,-0.03 -3.1076,0.644 c -11.1078,2.662 -18.9771,6.246 -23.3824,10.652 -4.3966,4.396 -7.9775,12.262 -10.6408,23.371 l -0.725,3.026 0.112,0.112 c -5.6313,26.22 -7.5923,74.196 3.192,134.159 4.8824,26.408 11.5697,52.031 19.8807,76.184 22.3654,65.004 55.7555,120.013 99.2426,163.5 43.6974,43.698 98.6812,77.115 163.4223,99.328 24.4082,8.398 50.065,15.059 76.2567,19.795 62.2804,11.274 111.8117,8.682 137.3968,2.495 7.5797,-1.848 17.7473,-5.191 23.1948,-10.638 4.4054,-4.405 7.9901,-12.275 10.6521,-23.383 6.0946,-25.598 8.6157,-75.061 -2.5815,-137.133 -4.7414,-26.189 -11.3973,-51.851 -19.7989,-76.263 -22.2661,-64.91 -55.655,-119.922 -99.2378,-163.505"
             style="fill:#ffffff;fill-opacity:1;fill-rule:nonzero;stroke:none;stroke-width:0.178003;stroke-opacity:1"
             id="path26433" />
          <path
             d="m -2029.2951,13434.251 -0.5841,-0.584 -2.1787,2.093 -2.7301,0.651 c 28.0822,117.624 89.8025,226.673 178.4773,315.348 0.043,0.04 0.077,0.08 0.1208,0.121 88.7239,88.681 197.837,150.41 315.5481,178.514 l 1.3568,-5.684 c -236.5348,-56.475 -433.3774,-253.249 -489.8188,-489.656 l -0.1913,-0.803"
             style="fill:#ffffff;fill-opacity:1;fill-rule:nonzero;stroke:none;stroke-width:0.178003;stroke-opacity:1"
             id="path26435" />
          <path
             d="m -1682.7762,13578.444 c -88.705,-88.706 -197.7866,-150.461 -315.4423,-178.6 l -0.6457,2.728 -2.1826,2.097 0.6659,0.665 0.8131,0.184 c 236.4115,56.547 433.1899,253.326 489.6565,489.657 l 5.6728,-1.351 c -28.0986,-117.615 -89.8327,-226.676 -178.5377,-315.38"
             style="fill:#ffffff;fill-opacity:1;fill-rule:nonzero;stroke:none;stroke-width:0.178003;stroke-opacity:1"
             id="path26437" />
          <path
             d="m -1673.467,13923.448 162.2089,-162.209 c -4.389,-24.2 -10.7453,-49.739 -19.5824,-75.442 l -218.0689,218.069 c 25.6996,8.841 51.2318,15.203 75.4424,19.582"
             style="fill:#ffffff;fill-opacity:1;fill-rule:nonzero;stroke:none;stroke-width:0.178003;stroke-opacity:1"
             id="path26439" />
          <path
             d="m -2008.1218,13644.487 217.8977,-217.897 c -25.697,-9.007 -51.2368,-15.365 -75.3542,-19.671 l -162.209,162.209 c 4.462,24.128 10.8246,49.66 19.6655,75.359"
             style="fill:#ffffff;fill-opacity:1;fill-rule:nonzero;stroke:none;stroke-width:0.178003;stroke-opacity:1"
             id="path26441" />
          <path
             d="m -1915.6924,13628.132 v 0 c -3.5645,-3.564 -9.3443,-3.564 -12.9102,0 l -29.9539,29.954 c -3.5645,3.565 -3.5658,9.346 0,12.91 v 0 c 3.5659,3.566 9.3469,3.565 12.9115,0 l 29.9539,-29.954 c 3.5658,-3.565 3.5658,-9.345 0,-12.911"
             style="fill:#ffffff;fill-opacity:1;fill-rule:nonzero;stroke:none;stroke-width:0.178003;stroke-opacity:1"
             id="path26443" />
          <path
             d="m -1891.5913,13656.364 v 0 c -3.5646,-3.564 -9.3469,-3.564 -12.9115,0 l -29.9539,29.954 c -3.5658,3.566 -3.5645,9.347 0,12.912 v 0 c 3.5659,3.565 9.3457,3.565 12.9115,0 l 29.9539,-29.954 c 3.5646,-3.565 3.5658,-9.346 0,-12.912"
             style="fill:#ffffff;fill-opacity:1;fill-rule:nonzero;stroke:none;stroke-width:0.178003;stroke-opacity:1"
             id="path26445" />
          <path
             d="m -1867.4915,13684.597 v 0 c -3.5646,-3.564 -9.3456,-3.565 -12.9102,0 l -29.9539,29.954 c -3.5658,3.566 -3.5646,9.347 0,12.912 v 0 c 3.5658,3.566 9.3457,3.566 12.9115,0 l 29.9539,-29.954 c 3.5645,-3.565 3.5645,-9.344 0,-12.91"
             style="fill:#ffffff;fill-opacity:1;fill-rule:nonzero;stroke:none;stroke-width:0.178003;stroke-opacity:1"
             id="path26447" />
          <path
             d="m -1843.3904,13712.829 v 0 c -3.5658,-3.565 -9.3457,-3.565 -12.9115,0 l -29.9526,29.953 c -3.5658,3.566 -3.5658,9.346 0,12.912 v 0 c 3.5658,3.565 9.3456,3.565 12.9114,0 l 29.9527,-29.953 c 3.5658,-3.566 3.5658,-9.346 0,-12.912"
             style="fill:#ffffff;fill-opacity:1;fill-rule:nonzero;stroke:none;stroke-width:0.178003;stroke-opacity:1"
             id="path26449" />
          <path
             d="m -1817.2239,13738.996 v 0 c -3.5658,-3.566 -9.3456,-3.566 -12.9114,0 l -29.9527,29.953 c -3.5658,3.565 -3.5658,9.345 0,12.911 v 0 c 3.5646,3.565 9.3457,3.566 12.9115,0 l 29.9526,-29.952 c 3.5659,-3.566 3.5646,-9.347 0,-12.912"
             style="fill:#ffffff;fill-opacity:1;fill-rule:nonzero;stroke:none;stroke-width:0.178003;stroke-opacity:1"
             id="path26451" />
          <path
             d="m -1788.9918,13763.097 v 0 c -3.5658,-3.566 -9.3457,-3.566 -12.9102,0 l -29.9539,29.954 c -3.5659,3.566 -3.5659,9.346 0,12.911 v 0 c 3.5645,3.565 9.3456,3.566 12.9114,0 l 29.9539,-29.953 c 3.5646,-3.565 3.5633,-9.346 0,-12.911"
             style="fill:#ffffff;fill-opacity:1;fill-rule:nonzero;stroke:none;stroke-width:0.178003;stroke-opacity:1"
             id="path26453" />
          <path
             d="m -1760.7585,13787.197 v 0 c -3.5659,-3.566 -9.3469,-3.565 -12.9115,0 l -29.9539,29.954 c -3.5658,3.566 -3.5658,9.345 0,12.911 v 0 c 3.5646,3.565 9.3456,3.566 12.9115,0 l 29.9539,-29.954 c 3.5645,-3.564 3.5645,-9.346 0,-12.911"
             style="fill:#ffffff;fill-opacity:1;fill-rule:nonzero;stroke:none;stroke-width:0.178003;stroke-opacity:1"
             id="path26455" />
          <path
             d="m -1732.5265,13811.298 v 0 c -3.5658,-3.566 -9.3456,-3.566 -12.9115,0 l -29.9539,29.954 c -3.5645,3.564 -3.5658,9.345 0,12.911 v 0 c 3.5646,3.565 9.3457,3.564 12.9103,0 l 29.9538,-29.954 c 3.5659,-3.565 3.5659,-9.345 0,-12.91"
             style="fill:#ffffff;fill-opacity:1;fill-rule:nonzero;stroke:none;stroke-width:0.178003;stroke-opacity:1"
             id="path26457" />
          <path
             d="m -1938.0816,13637.678 c -1.9183,-1.918 -4.9819,-2.296 -7.3381,-0.745 -2.6961,1.772 -3.4437,5.394 -1.6728,8.092 51.2633,77.975 119.6155,146.327 197.6721,197.672 2.6961,1.772 6.3185,1.024 8.0933,-1.672 1.7734,-2.697 1.0157,-6.322 -1.6703,-8.092 -76.7375,-50.476 -143.9355,-117.674 -194.329,-194.329 -0.2241,-0.34 -0.4783,-0.649 -0.7552,-0.926"
             style="fill:#ffffff;fill-opacity:1;fill-rule:nonzero;stroke:none;stroke-width:0.178003;stroke-opacity:1"
             id="path26459" />
          <path
             d="m -2001.4093,13408.334 1.8717,-0.369 c 24.5529,-5.932 72.4631,-8.344 133.2733,2.699 25.7802,4.584 50.9284,11.154 74.7879,19.507 63.5502,21.687 117.3813,54.296 160.0251,96.94 42.5671,42.567 75.2042,96.376 97.0135,159.922 8.2405,23.974 14.7806,49.168 19.4326,74.89 10.9505,60.643 8.5628,108.627 2.6936,133.293 -2.1536,8.999 -5.1366,15.909 -8.17,18.942 -3.0083,3.008 -9.858,5.986 -18.7832,8.163 -24.6511,5.959 -72.6796,8.406 -133.5263,-2.61 -25.7235,-4.653 -50.9171,-11.193 -74.8823,-19.437 -63.3842,-21.748 -117.1635,-54.414 -159.8451,-97.096 -42.4727,-42.472 -75.1126,-96.278 -97.0135,-159.927 -8.1575,-23.717 -14.7265,-48.886 -19.5208,-74.814 -10.958,-60.932 -8.5313,-108.842 -2.6042,-133.353 l 0.4343,-2.138 c 2.1032,-8.004 4.8484,-14.092 7.6426,-16.886 2.832,-2.832 9.036,-5.615 17.1708,-7.726 z m 375.3324,113.403 c -43.4708,-43.471 -98.2886,-76.69 -162.9149,-98.748 -24.2106,-8.478 -49.7617,-15.149 -75.9207,-19.809 -60.308,-10.943 -108.4548,-8.844 -134.3293,-3.075 l -0.014,-0.01 -2.1523,0.416 c -7.4136,1.774 -17.3446,4.984 -22.5429,10.182 -5.187,5.187 -8.3966,15.118 -10.1738,22.534 l -0.4959,2.07 0.096,0.1 c -5.7508,25.824 -7.8717,73.968 2.9994,134.413 4.8673,26.312 11.5307,51.851 19.8128,75.922 22.2785,64.748 55.5264,119.532 98.8222,162.828 43.506,43.506 98.2646,76.781 162.7489,98.907 24.3264,8.368 49.8951,15.007 75.9987,19.728 62.0098,11.227 111.2579,8.661 136.6705,2.516 7.3569,-1.794 17.201,-5.012 22.3616,-10.173 5.1983,-5.198 8.4079,-15.129 10.1827,-22.543 6.0605,-25.431 8.5577,-74.615 -2.5954,-136.417 -4.7276,-26.1 -11.3658,-51.668 -19.736,-75.999 -22.1831,-64.65 -55.4258,-119.441 -98.8173,-162.833"
             style="fill:#ffffff;fill-opacity:1;fill-rule:nonzero;stroke:none;stroke-width:0.178003;stroke-opacity:1"
             id="path26461" />
        </g>
      </g>
    </g>
  </g>
</svg>
